# xmcd
#
# Track frame offsets: 
#        150
#        11632
#        25187
#        40485
#        51117
#        63255
#        74280
#        87525
#        99362
#        110300
#        123027
#        134320
#
# Disc length: 1938 seconds
#
# Revision: 2
# Processed by: cddbd v1.5.2PL0 Copyright (c) Steve Scherf et al.
# Submitted via: ExactAudioCopy v0.99pb4
#
DISCID=9a07900c
DTITLE=B.B. King - Blues On Top Of The Blues
DYEAR=1968
DGENRE=Blues
TTITLE0=Heartbreaker
TTITLE1=Losing Faith In You
TTITLE2=Dance With Me
TTITLE3=That's Wrong Little Mama
TTITLE4=Having My Say
TTITLE5=I'm Not Wanted Anymore
TTITLE6=Worried Dream
TTITLE7=Paying The Cost To Be The Boss
TTITLE8=Until I Found You
TTITLE9=I'm Gonna Do What They Do To Me
TTITLE10=Raining In My Heart
TTITLE11=Now That You've Lost Me
EXTD=
EXTT0=
EXTT1=
EXTT2=
EXTT3=
EXTT4=
EXTT5=
EXTT6=
EXTT7=
EXTT8=
EXTT9=
EXTT10=
EXTT11=
PLAYORDER=
